<?xml version="1.0" encoding="UTF-8" standalone="no"?>
<!-- Created with Inkscape (http://www.inkscape.org/) -->

<svg
   xmlns:dc="http://purl.org/dc/elements/1.1/"
   xmlns:cc="http://creativecommons.org/ns#"
   xmlns:rdf="http://www.w3.org/1999/02/22-rdf-syntax-ns#"
   xmlns:svg="http://www.w3.org/2000/svg"
   xmlns="http://www.w3.org/2000/svg"
   xmlns:sodipodi="http://sodipodi.sourceforge.net/DTD/sodipodi-0.dtd"
   xmlns:inkscape="http://www.inkscape.org/namespaces/inkscape"
   width="62.663696mm"
   height="63.536728mm"
   viewBox="0 0 62.663696 63.536728"
   version="1.1"
   id="svg8"
   inkscape:version="0.92.4 (5da689c313, 2019-01-14)"
   sodipodi:docname="orange-logo.svg">
  <defs
     id="defs2" />
  <sodipodi:namedview
     id="base"
     pagecolor="#ffffff"
     bordercolor="#666666"
     borderopacity="1.0"
     inkscape:pageopacity="0.0"
     inkscape:pageshadow="2"
     inkscape:zoom="0.98994949"
     inkscape:cx="246.3006"
     inkscape:cy="34.418117"
     inkscape:document-units="mm"
     inkscape:current-layer="g65"
     showgrid="false"
     inkscape:snap-bbox="true"
     inkscape:snap-global="true"
     inkscape:window-width="2560"
     inkscape:window-height="1417"
     inkscape:window-x="-8"
     inkscape:window-y="-8"
     inkscape:window-maximized="1"
     fit-margin-top="0"
     fit-margin-left="0"
     fit-margin-right="0"
     fit-margin-bottom="0" />
  <metadata
     id="metadata5">
    <rdf:RDF>
      <cc:Work
         rdf:about="">
        <dc:format>image/svg+xml</dc:format>
        <dc:type
           rdf:resource="http://purl.org/dc/dcmitype/StillImage" />
        <dc:title></dc:title>
      </cc:Work>
    </rdf:RDF>
  </metadata>
  <g
     inkscape:label="Layer 1"
     inkscape:groupmode="layer"
     id="layer1"
     transform="translate(-66.892565,-30.683755)">
    <g
       id="g65"
       transform="translate(-42.900298,-5.1971726)">
      <path
         inkscape:connector-curvature="0"
         id="path33"
         d="m 136.77391,98.94354 c -3.32097,-0.716328 -5.18206,-1.356109 -8.35291,-2.871444 -3.13389,-1.497671 -5.12137,-2.952334 -8.16732,-5.977789 -3.72217,-3.69711 -7.8295,-9.983911 -9.13122,-13.976497 -1.28532,-3.942289 -1.43716,-5.035685 -1.27799,-9.202968 0.21508,-5.631111 1.01146,-8.747244 3.50811,-13.726765 2.6221,-5.229743 5.95716,-9.113273 10.7102,-12.471564 2.92395,-2.065931 5.03389,-3.181732 7.7978,-4.123712 2.02602,-0.690497 2.33762,-0.720923 7.27604,-0.710465 4.70093,0.01 5.38542,0.07184 7.70322,0.6965 3.31791,0.894189 7.2423,2.546633 9.72931,4.096718 3.07371,1.915755 7.70446,6.674402 10.17761,10.45869 3.62117,5.540927 4.74,8.137802 5.47048,12.697321 0.48974,3.056867 0.20156,8.216159 -0.62472,11.184636 -1.15877,4.162928 -3.80112,9.498666 -6.33312,12.788577 -2.44823,3.181061 -7.85109,7.568779 -11.70299,9.504105 -3.274,1.644978 -4.87304,1.985248 -9.78958,2.083208 -3.76447,0.07501 -4.90476,0.0019 -6.99292,-0.448551 z m 12.54917,-0.649748 c 6.4131,-1.77505 13.92559,-7.761417 17.63218,-14.050298 1.65952,-2.815653 3.48289,-7.129137 4.23606,-10.021043 0.87764,-3.369873 0.86876,-8.934092 -0.02,-12.567708 -0.93608,-3.826843 -1.46097,-4.867275 -5.73958,-11.377083 -2.6845,-4.0844 -7.4956,-8.429122 -11.51167,-10.39576 -5.41536,-2.651854 -10.55157,-3.787584 -16.06925,-3.553268 -5.30411,0.225247 -8.62799,1.422913 -13.40052,4.828499 -8.8445,6.311267 -14.14778,16.390255 -14.15214,26.896459 -0.002,4.989645 1.29981,8.930534 4.74749,14.370944 2.4943,3.935995 4.5113,6.353564 7.62002,9.133303 4.18676,3.743692 8.97648,5.816787 16.73559,7.243524 1.4903,0.274034 8.36944,-0.07788 9.92188,-0.507569 z m -9.24342,-0.941665 c -4.22358,-0.428675 -9.08228,-2.024359 -12.86514,-4.225139 -1.73599,-1.00996 -5.59645,-4.397359 -7.45114,-6.538068 -1.19518,-1.379498 -4.01804,-5.628556 -5.35339,-8.058081 -0.5372,-0.977369 -1.32173,-3.001431 -1.7434,-4.497917 -0.64968,-2.305661 -0.76786,-3.208396 -0.77437,-5.915408 -0.0136,-5.650183 0.87446,-9.262293 3.47529,-14.135687 2.7305,-5.116376 5.81538,-8.699013 10.14307,-11.779694 5.14046,-3.65925 8.88478,-4.706383 15.50581,-4.336336 4.87687,0.272567 9.83466,1.793624 14.08881,4.322464 2.16126,1.284741 6.46571,5.420886 8.14321,7.824816 2.21954,3.180678 4.5534,7.201691 5.04947,8.699735 0.79797,2.409701 1.80761,7.828275 1.81765,9.755018 0.0184,3.524909 -0.67332,7.004232 -2.01618,10.14163 -2.55301,5.964716 -5.62186,9.948004 -10.48885,13.614261 -5.82522,4.388073 -10.71925,5.819757 -17.53084,5.128406 z m 7.83706,-0.908413 c 3.99111,-0.826068 10.13883,-4.624612 13.59233,-8.398401 3.26803,-3.571115 6.52247,-9.647184 7.37301,-13.76549 0.95972,-4.646988 0.80947,-7.91887 -0.61827,-13.463163 -0.64044,-2.48701 -1.02274,-3.342296 -2.82915,-6.329447 -4.18906,-6.927197 -7.6292,-10.371234 -12.93656,-12.951206 -1.88004,-0.913911 -4.30809,-1.842613 -5.95312,-2.277005 -2.50207,-0.660703 -3.22508,-0.734677 -7.27604,-0.744449 -3.99829,-0.0096 -4.71731,0.05804 -6.47297,0.609336 -6.96761,2.187903 -13.38294,8.047021 -17.26695,15.76988 -1.60146,3.184297 -2.22018,5.020209 -2.69039,7.983172 -0.63997,4.032636 -0.5604,7.392815 0.24674,10.419468 0.89102,3.341188 1.75661,5.127014 4.46356,9.208884 1.7295,2.607955 2.9303,4.057004 5.06905,6.116984 3.17765,3.060628 4.78489,4.173241 8.11485,5.617527 2.12466,0.921515 6.29188,2.137884 8.27152,2.414376 2.02247,0.282469 7.11142,0.162295 8.91239,-0.210466 z m -9.83843,-2.391822 c -3.51548,-0.754523 -5.29384,-1.757058 -5.28869,-2.981458 0.003,-0.696867 1.07077,-3.697107 4.68702,-13.168838 2.19402,-5.74662 2.6307,-6.56068 3.57908,-6.672114 0.61988,-0.07284 0.79507,0.100676 1.48842,1.474189 0.43221,0.856211 2.29029,5.328664 4.12907,9.938782 3.70785,9.296201 3.85206,9.949121 2.38531,10.8 -1.72923,1.003144 -7.62197,1.330211 -10.98021,0.609439 z m 8.01911,-0.411763 c 2.49408,-0.385078 3.35797,-0.834308 3.35797,-1.746163 0,-0.730216 -4.66508,-12.72681 -6.7947,-17.473077 -0.66927,-1.491589 -1.37636,-2.71198 -1.57132,-2.71198 -0.47959,0 -1.11258,1.305571 -2.89599,5.97312 -3.64634,9.543192 -4.89483,13.134853 -4.73778,13.62966 0.23654,0.745266 2.02268,1.561693 4.6121,2.108145 2.6402,0.557167 5.36388,0.631891 8.02972,0.220295 z m 6.03559,-2.710635 c -0.16368,-0.197221 -1.38145,-2.667768 -2.70617,-5.490104 -5.3679,-11.436461 -6.46799,-14.099064 -6.15846,-14.90568 0.28054,-0.731089 1.71358,-0.45175 5.39326,1.051298 1.96453,0.802455 5.715,2.299165 8.33438,3.326026 7.931,3.109148 7.74661,2.962101 6.8089,5.429933 -0.93972,2.473148 -3.07007,5.219983 -6.14744,7.926416 -3.09208,2.719358 -4.79566,3.540273 -5.52447,2.662111 z m 2.36381,-0.935723 c 4.04982,-2.634298 8.12,-7.460459 9.0995,-10.789608 0.22035,-0.748903 -0.56481,-1.488373 -2.04352,-1.924608 -0.61446,-0.181271 -3.7961,-1.405921 -7.07032,-2.721443 -6.34339,-2.548662 -9.93849,-3.907536 -10.33793,-3.907536 -0.76481,0 0.26714,2.767079 3.84827,10.31875 1.20764,2.546614 2.73758,5.791067 3.39987,7.209895 0.66227,1.418828 1.36698,2.579688 1.566,2.579688 0.19902,0 0.89118,-0.344313 1.53813,-0.765138 z m -25.92013,0.211905 c -1.2326,-0.492797 -3.89084,-2.582339 -5.62849,-4.424347 -2.02651,-2.148207 -3.67967,-4.791683 -4.48157,-7.166229 -0.92041,-2.725491 -1.03117,-2.632479 5.72106,-4.804531 1.89177,-0.608542 4.62321,-1.637922 6.06987,-2.287505 3.27187,-1.46915 6.97886,-2.724571 8.04507,-2.724571 1.84227,0 1.64899,0.957093 -1.54947,7.672916 -1.28216,2.692136 -3.12275,6.680729 -4.09022,8.863542 -1.53829,3.470724 -2.63601,5.199985 -3.26449,5.142603 -0.10102,-0.0092 -0.47082,-0.13157 -0.82176,-0.271878 z m 2.03234,-1.828017 c 0.33027,-0.654844 1.65681,-3.512344 2.94784,-6.35 1.29104,-2.837656 3.01511,-6.587979 3.83126,-8.334052 1.62934,-3.485758 1.81482,-4.365947 0.92002,-4.365947 -0.80659,0 -4.96117,1.46097 -7.90276,2.779027 -1.38244,0.619442 -4.23994,1.685036 -6.35,2.367986 -5.53014,1.789912 -5.29166,1.674394 -5.29166,2.563259 0,0.421799 0.28116,1.458852 0.6248,2.304561 1.37954,3.395062 4.12226,6.744118 7.43733,9.081489 2.31787,1.634276 2.93937,1.626666 3.78317,-0.04632 z m 28.37136,-14.151525 c -2.69213,-0.922075 -6.32354,-2.117521 -8.06979,-2.656541 -6.00527,-1.853665 -7.78734,-3.357194 -5.53694,-4.671502 2.10454,-1.229113 17.63544,-6.830848 18.93864,-6.830848 1.96152,0 2.61741,1.395519 2.80616,5.970513 0.23184,5.619586 -1.06968,10.004137 -2.93419,9.884685 -0.16999,-0.01089 -2.51174,-0.774229 -5.20388,-1.696307 z m 5.71777,0.984454 c 1.8616,-1.231641 2.58086,-9.969338 1.12159,-13.625356 -0.60309,-1.510964 -1.72434,-1.282893 -11.07269,2.252255 -8.55473,3.235036 -8.79443,3.331831 -9.39271,3.792966 -0.52279,0.40295 -0.52056,0.415343 0.18466,1.027991 0.87269,0.758145 3.79842,1.905828 8.01861,3.145483 1.7456,0.512759 4.84069,1.527638 6.87798,2.255281 4.18263,1.493878 3.87179,1.409915 4.26256,1.15138 z m -48.66973,-1.911533 c -1.3918,-1.654058 -1.55886,-5.776946 -0.44218,-10.912609 0.55672,-2.560368 1.16434,-3.722116 2.0138,-3.850344 0.27667,-0.04176 2.38573,0.699611 4.68679,1.647497 2.30107,0.947888 5.03933,1.9777 6.08501,2.288471 4.32384,1.285015 9.70646,3.697483 9.70646,4.350393 0,1.029211 -3.891,2.470314 -17.43587,6.457701 -3.41577,1.005544 -3.78253,1.007046 -4.61401,0.01889 z m 3.20666,-0.245136 c 0.83216,-0.27889 2.70364,-0.822362 4.15885,-1.20772 5.76478,-1.526577 13.89062,-4.40419 13.89062,-4.919101 0,-0.460076 -5.37141,-2.76696 -8.86354,-3.806664 -0.87313,-0.259953 -3.65905,-1.312259 -6.19095,-2.338459 l -4.60345,-1.865817 -0.46956,0.579884 c -1.02737,1.268754 -2.06032,8.560292 -1.57512,11.118736 0.3044,1.605076 0.63125,2.291974 1.2668,2.662253 0.61891,0.360577 0.65473,0.357228 2.38635,-0.223112 z m 23.53443,-6.967405 c -0.17199,-0.492943 0.49649,-2.572681 1.57182,-4.890156 2.53113,-5.454915 6.93808,-14.295221 7.40921,-14.862798 0.69991,-0.843212 1.81386,-0.798508 3.54216,0.142152 2.76168,1.503095 6.0635,5.116662 7.75711,8.489506 0.86913,1.730884 0.9013,2.837213 0.0978,3.361829 -0.79135,0.516662 -12.83706,5.735222 -16.27545,7.051016 -2.82782,1.082138 -3.9072,1.268529 -4.10261,0.708451 z m 5.19068,-1.781035 c 3.46832,-1.396825 13.72231,-5.818621 14.67276,-6.327288 0.74214,-0.397182 0.7283,-0.890233 -0.0733,-2.612081 -1.50754,-3.238113 -4.77324,-6.859989 -7.5462,-8.369224 -2.38844,-1.299956 -2.4211,-1.272387 -5.29677,4.471399 -3.70232,7.394922 -6.33835,13.206582 -6.34347,13.985454 -0.004,0.635931 0.42134,0.529413 4.587,-1.14826 z m -12.52772,-0.163547 c -2.47501,-0.852657 -5.09385,-1.949103 -13.70953,-5.739841 -4.59603,-2.022165 -4.76829,-2.797969 -1.58236,-7.126242 1.59036,-2.160594 3.40554,-3.836248 5.99927,-5.538111 2.11508,-1.387796 3.34151,-1.634626 4.06387,-0.81789 1.08898,1.231243 9.26702,18.622829 9.14861,19.455608 -0.1242,0.873506 -0.82824,0.831564 -3.91986,-0.233524 z m 3.43958,0.0054 c 0,-0.325385 -3.57526,-7.912129 -6.28671,-13.340503 l -2.84141,-5.688542 -0.89396,0.04272 c -1.91824,0.09166 -6.76154,4.121191 -8.97615,7.467974 -1.48184,2.2394 -1.61388,2.824586 -0.81437,3.609155 0.96555,0.947496 15.30885,7.187418 18.09281,7.871107 0.78362,0.192444 1.71979,0.213174 1.71979,0.03808 z m 1.73643,-1.93e-4 c -0.62048,-0.620482 -0.73469,-0.893805 -2.53407,-6.064263 -0.91157,-2.619375 -2.48488,-6.667499 -3.49624,-8.995833 -1.01136,-2.328333 -1.97506,-4.691817 -2.14155,-5.252186 -0.28489,-0.958863 -0.25987,-1.055701 0.42486,-1.644683 1.58534,-1.36365 5.18993,-1.936787 9.09763,-1.446541 4.63978,0.582082 8.29002,2.106902 8.29002,3.462995 0,0.273082 -0.75741,2.144716 -1.68313,4.159188 -0.92572,2.014472 -2.30471,5.382098 -3.06442,7.483614 -1.68787,4.669007 -3.29185,8.080881 -3.96945,8.443521 -0.38087,0.203835 -0.6102,0.16763 -0.92365,-0.145822 z m 2.01555,-2.690831 c 0.58958,-1.273308 1.57831,-3.743854 2.19717,-5.490104 1.23527,-3.485566 2.23954,-5.945799 3.21091,-7.866057 0.34819,-0.688311 0.87068,-1.854298 1.1611,-2.591083 l 0.52802,-1.339609 -0.62768,-0.627683 c -1.51766,-1.517659 -8.91175,-2.903106 -12.12252,-2.271426 -2.16248,0.425441 -3.60971,1.019554 -3.92678,1.612003 -0.19565,0.365567 0.0948,1.279476 1.23018,3.870788 1.52315,3.476379 4.33304,10.611097 4.33304,11.002251 0,0.380537 1.90127,5.340001 2.17952,5.685293 0.49882,0.619 0.76447,0.332049 1.83704,-1.984375 z"
         style="fill:#000000;stroke-width:0.26458332" />
      <path
         inkscape:connector-curvature="0"
         id="path37"
         d="m 528.91922,373.54567 c -2.85258,-0.22589 -10.94194,-1.89314 -18.125,-3.73561 -19.06222,-4.88948 -33.09685,-11.80369 -45.44643,-22.38935 -11.63178,-9.97042 -20.68799,-20.59408 -29.85982,-35.02802 -10.93081,-17.20209 -16.05413,-29.73127 -17.81524,-43.56745 -1.17131,-9.2024 -0.83405,-20.73733 0.90857,-31.07541 5.3879,-31.96362 23.13969,-60.72547 49.71292,-80.54601 7.62008,-5.68369 15.43453,-10.4214 21.875,-13.26228 10.0485,-4.43237 19.76346,-6.32194 33.83929,-6.58179 15.45997,-0.2854 29.26468,2.08581 43.96503,7.55179 6.49973,2.41677 14.21785,5.95638 18.48832,8.47892 13.28736,7.84877 27.48117,20.909 36.6829,33.75324 1.80311,2.51686 9.06911,13.67868 11.96091,18.37399 6.44729,10.4682 8.72611,15.62861 11.19763,25.35714 1.87478,7.37962 2.59328,12.63116 2.998,21.91243 0.41883,9.60543 -0.54743,20.90731 -2.37088,27.73043 -3.05318,11.42473 -10.152,28.12053 -16.28612,38.30357 -13.09061,21.73121 -37.5391,42.17718 -60.75746,50.81066 -2.55363,0.94954 -5.84836,1.90343 -7.67401,2.2218 -7.06235,1.23157 -26.5815,2.22352 -33.29361,1.69195 z m 19.10715,-5.18305 c 16.16622,-1.17152 30.63786,-7.04813 46.60714,-18.92608 12.55391,-9.33762 21.13264,-18.20351 28.84609,-29.81171 5.75653,-8.66316 11.73784,-20.80155 14.69477,-29.82143 3.19457,-9.74473 4.7193,-19.15672 4.74425,-29.28571 0.0145,-5.85043 -0.12511,-7.28295 -1.51302,-15.53572 -1.36861,-8.13796 -3.59598,-18.04573 -5.07832,-22.58928 -1.21615,-3.72759 -5.44029,-11.74846 -10.71261,-20.34122 -2.62773,-4.28265 -7.42773,-11.56806 -9.24618,-14.03378 -2.90561,-3.93987 -6.70825,-8.15744 -12.56428,-13.9352 -7.89506,-7.78955 -13.69,-12.52179 -19.1707,-15.6551 -14.992,-8.57091 -31.57359,-13.68986 -49.46429,-15.27024 -4.13824,-0.36556 -18.13741,-0.30535 -21.51785,0.0925 -13.83124,1.628 -23.71115,5.51669 -36.96429,14.54899 -7.31985,4.98863 -13.0125,9.73801 -19.01786,15.8666 -9.11275,9.29975 -16.75337,20.33331 -23.66502,34.17383 -3.00423,6.01595 -4.62234,9.84414 -6.34022,15 -3.43869,10.32044 -4.81279,20.16058 -4.81269,34.46428 5e-5,8.21861 0.32128,11.96319 1.45471,16.95796 1.54437,6.80569 4.68413,15.87578 7.30664,21.10737 3.98462,7.94881 15.72222,25.77115 21.20823,32.20253 5.4926,6.43909 19.16157,18.65518 26.00907,23.24455 3.94738,2.64565 12.09781,6.66997 18.66071,9.21382 17.30172,6.7064 34.30102,9.50947 50.53572,8.33299 z"
         style="fill:#ffa500;fill-opacity:1;stroke-width:0.17857143"
         transform="scale(0.26458333)" />
      <path
         inkscape:connector-curvature="0"
         id="path39"
         d="m 442.36028,277.21388 c -2.43578,-1.21858 -3.70598,-3.19582 -4.77155,-7.42758 -1.072,-4.25725 -1.32259,-7.61377 -1.0053,-13.46504 0.64135,-11.82733 2.99385,-24.88618 5.36879,-29.80244 0.46916,-0.97118 2.32869,-3.51531 2.65883,-3.63769 0.0701,-0.026 3.01683,1.12593 6.5482,2.55985 21.05141,8.54792 26.56183,10.65317 36.42069,13.91445 6.72653,2.22512 11.50536,3.99292 17.14285,6.34155 6.75645,2.81479 12.0416,5.41478 13.57143,6.67634 0.77201,0.63663 0.52637,0.90162 -2.02971,2.18955 -6.92672,3.49017 -28.00962,10.76055 -44.99085,15.51498 -14.27289,3.99614 -16.62785,4.67589 -20.21158,5.83397 -4.27627,1.38188 -6.24843,1.9273 -6.96886,1.9273 -0.26573,0 -1.04556,-0.28136 -1.73294,-0.62524 z"
         style="fill:#ffa500;fill-opacity:1;stroke-width:0.17857143"
         transform="scale(0.26458333)" />
      <path
         inkscape:connector-curvature="0"
         id="path41"
         d="m 486.52756,338.29009 c -3.27402,-1.15528 -9.96609,-5.90039 -15.68645,-11.1227 -10.07311,-9.19611 -18.13987,-21.45805 -21.14237,-32.13764 -0.51549,-1.83351 -0.64581,-2.61826 -0.66561,-4.00789 -0.0241,-1.69081 -0.0131,-1.74006 0.51109,-2.28935 1.04793,-1.09812 2.94016,-1.82014 15.63487,-5.9658 12.93866,-4.22534 20.64478,-7.07491 29.27585,-10.82563 11.2051,-4.86929 25.44774,-9.81506 28.26779,-9.81602 0.90217,-3.1e-4 1.69983,0.43358 1.84256,1.00226 0.33075,1.31784 -0.4932,4.26879 -2.48929,8.91523 -0.63123,1.46936 -3.13508,6.97067 -5.56412,12.22514 -2.42903,5.25446 -7.19058,15.62053 -10.58122,23.03571 -13.40617,29.3187 -13.71792,29.93037 -15.77734,30.95663 -1.18015,0.58809 -2.02447,0.59509 -3.62576,0.0301 z"
         style="fill:#ffa500;fill-opacity:1;stroke-width:0.17857143"
         transform="scale(0.26458333)" />
      <path
         inkscape:connector-curvature="0"
         id="path43"
         d="m 521.15137,242.72461 c -2.6814,-0.3898 -5.51217,-1.23333 -10.9179,-3.25333 -16.51347,-6.17075 -49.39615,-20.6381 -57.65353,-25.36574 -5.79241,-3.31637 -5.74089,-5.65828 0.32444,-14.74857 3.36558,-5.04408 7.09057,-9.35377 12.71127,-14.70651 5.50328,-5.24091 11.55976,-9.79088 16.11061,-12.10319 2.70768,-1.37579 3.83582,-1.69276 6.42198,-1.8044 l 2.17544,-0.0939 6.73156,13.46114 c 10.47947,20.95584 19.30464,39.26404 25.03947,51.94546 2.13617,4.72372 2.74685,6.28978 2.53523,6.5014 -0.19556,0.19556 -2.51699,0.30743 -3.47857,0.16764 z"
         style="fill:#ffa500;fill-opacity:1;stroke-width:0.17857143"
         transform="scale(0.26458333)" />
      <path
         inkscape:connector-curvature="0"
         id="path45"
         d="m 532.53108,240.02662 c -0.87929,-0.95458 -3.17159,-6.35027 -6.16395,-14.50893 -1.21371,-3.3092 -1.64398,-4.62423 -2.83369,-8.66072 -1.32533,-4.4966 -9.16332,-24.25285 -15.55058,-39.19643 -4.5275,-10.5925 -5.59116,-13.72668 -5.15384,-15.18633 0.61386,-2.04886 5.55357,-4.34464 12.82072,-5.95854 4.00457,-0.88934 6.11908,-1.06643 11.29477,-0.94594 13.27633,0.30908 29.74332,4.13618 35.43218,8.23481 0.60286,0.43434 1.61135,1.31412 2.2411,1.95506 l 1.145,1.16535 -0.7716,2.01958 c -1.44938,3.79359 -3.25301,7.91034 -5.89189,13.44816 -4.25776,8.93511 -7.12999,15.95655 -11.24929,27.5 -5.55542,15.56786 -11.81235,29.68238 -13.57671,30.62664 -0.61589,0.32961 -1.11468,0.18856 -1.74222,-0.49271 z"
         style="fill:#ffa500;fill-opacity:1;stroke-width:0.17857143"
         transform="scale(0.26458333)" />
      <path
         inkscape:connector-curvature="0"
         id="path47"
         d="m 534.18708,354.67815 c -15.02151,-1.0242 -29.73214,-6.00807 -29.73214,-10.07306 0,-2.18689 3.11684,-11.53513 9.90656,-29.7124 8.76136,-23.45571 13.44361,-35.37259 15.55927,-39.60019 1.49811,-2.9936 2.91522,-4.58349 3.59282,-4.03087 1.12019,0.91357 4.33923,7.05694 7.28283,13.89891 6.23278,14.48724 15.88614,38.83394 21.02842,53.03572 3.15988,8.72684 3.33087,9.52398 2.38812,11.13267 -0.98658,1.68346 -3.54135,2.84548 -8.49795,3.86526 -2.96655,0.61033 -7.25615,1.17723 -10.81364,1.42909 -2.314,0.16382 -8.64114,0.19622 -10.71429,0.0549 z"
         style="fill:#ffa500;fill-opacity:1;stroke-width:0.17857143"
         transform="scale(0.26458333)" />
      <path
         inkscape:connector-curvature="0"
         id="path49"
         d="m 577.36008,342.22335 c -0.75999,-0.86668 -2.00355,-2.90785 -3.3782,-5.54495 -1.28139,-2.45819 -18.74639,-39.52073 -21.66819,-45.98214 -5.13783,-11.36206 -7.88121,-18.56308 -8.29971,-21.78572 -0.12295,-0.94676 0.18248,-1.67073 0.73872,-1.75097 1.10614,-0.15957 13.26107,4.39052 35.68438,13.35812 15.71097,6.28318 27.0572,10.6567 30.80357,11.87357 4.2415,1.37768 7.12366,3.76346 7.13894,5.90943 0.009,1.22204 -1.66173,5.39473 -3.53422,8.82838 -6.29232,11.53849 -18.69148,24.79284 -30.49245,32.59555 -2.06603,1.36605 -4.75683,2.81909 -5.74284,3.10115 -0.53962,0.15437 -0.6206,0.11534 -1.25,-0.60242 z"
         style="fill:#ffa500;fill-opacity:1;stroke-width:0.17857143"
         transform="scale(0.26458333)" />
      <path
         inkscape:connector-curvature="0"
         id="path51"
         d="m 619.66118,284.42949 c -0.72138,-0.19373 -3.6946,-1.20058 -6.60714,-2.23743 -14.10074,-5.01982 -22.94652,-7.96096 -33.77767,-11.23077 -18.02254,-5.44081 -26.89758,-9.13998 -30.33098,-12.64214 -1.17177,-1.19523 -1.14101,-1.39862 0.38511,-2.54597 2.31556,-1.74087 4.18951,-2.52005 25.39229,-10.55808 25.31794,-9.59808 32.8868,-12.33172 39.24139,-14.17275 5.26162,-1.52438 8.50497,-1.87898 10.17694,-1.11265 1.49393,0.68473 2.18431,1.71896 3.13417,4.69513 3.35743,10.51982 2.94046,31.11229 -0.86509,42.72388 -1.19597,3.64918 -2.94253,6.41466 -4.5257,7.16592 -0.7291,0.34598 -0.59953,0.35094 -2.22332,-0.0851 z"
         style="fill:#ff8000;fill-opacity:1;stroke-width:0.17857143"
         transform="scale(0.26458333)" />
      <path
         inkscape:connector-curvature="0"
         id="path53"
         d="m 542.54064,248.54702 c -0.53741,-0.21246 -0.68449,-0.93853 -0.4114,-2.03093 1.11594,-4.46392 7.90588,-19.56175 18.85922,-41.93457 11.3735,-23.23104 14.02292,-27.83755 16.75679,-29.13486 0.82211,-0.39012 2.33357,-0.35942 3.59017,0.0729 2.49637,0.85888 7.37782,3.75166 10.74454,6.3673 10.35907,8.04806 20.60806,21.58234 23.99981,31.69287 0.90901,2.70969 0.64391,4.07426 -1.00442,5.17016 -1.24174,0.82557 -13.83645,6.40185 -32.31684,14.30822 -23.06337,9.86708 -36.45836,15.1931 -39.10714,15.54951 -0.39286,0.0529 -0.89269,0.0256 -1.11073,-0.0606 z"
         style="fill:#ffa500;fill-opacity:1;stroke-width:0.17857143"
         transform="scale(0.26458333)" />
    </g>
  </g>
</svg>
